/* XPM */
static char * __ccw_48x48_xpm[] = {
"48 48 209 2",
"  	c None",
". 	c #523F74",
"+ 	c #504073",
"@ 	c #6C6598",
"# 	c #C3D4FF",
"$ 	c #C2D4FF",
"% 	c #C1D4FF",
"& 	c #C0D5FF",
"* 	c #C5D1FF",
"= 	c #5E5284",
"- 	c #5C4A87",
"; 	c #50387A",
"> 	c #3B1961",
", 	c #371060",
"' 	c #3F1C68",
") 	c #A7B0DD",
"! 	c #C2D5FF",
"~ 	c #C1D5FF",
"{ 	c #B6DBFF",
"] 	c #453268",
"^ 	c #3A1462",
"/ 	c #3B1166",
"( 	c #3A1164",
"_ 	c #8887BA",
": 	c #BFD5FF",
"< 	c #270D41",
"[ 	c #3A1761",
"} 	c #432768",
"| 	c #C4D5FF",
"1 	c #BFD1FF",
"2 	c #C3D2FF",
"3 	c #C4D1FF",
"4 	c #C3D5FF",
"5 	c #C8DBFF",
"6 	c #2E0D51",
"7 	c #381061",
"8 	c #280A46",
"9 	c #BFCFFF",
"0 	c #C2D3FF",
"a 	c #C3D3FF",
"b 	c #290C46",
"c 	c #391062",
"d 	c #310F56",
"e 	c #310E53",
"f 	c #280D46",
"g 	c #BBCCFF",
"h 	c #280C40",
"i 	c #330E57",
"j 	c #2E0E50",
"k 	c #300D52",
"l 	c #330E56",
"m 	c #290B47",
"n 	c #C0D2FF",
"o 	c #280848",
"p 	c #36105D",
"q 	c #391163",
"r 	c #280B42",
"s 	c #280B43",
"t 	c #37105E",
"u 	c #280D3C",
"v 	c #2E0D4C",
"w 	c #340F5A",
"x 	c #1C0039",
"y 	c #300E52",
"z 	c #36105E",
"A 	c #340F57",
"B 	c #340E58",
"C 	c #330F58",
"D 	c #330F57",
"E 	c #340F59",
"F 	c #310E56",
"G 	c #2B0D4C",
"H 	c #260A42",
"I 	c #210B43",
"J 	c #300E53",
"K 	c #3B1165",
"L 	c #350F5C",
"M 	c #330E58",
"N 	c #2F0D51",
"O 	c #2E0F4D",
"P 	c #320D55",
"Q 	c #37105F",
"R 	c #2C0D4A",
"S 	c #27144E",
"T 	c #2C0C4D",
"U 	c #C2D6FF",
"V 	c #310E54",
"W 	c #320F56",
"X 	c #2D0D4E",
"Y 	c #C1D3FF",
"Z 	c #300F55",
"` 	c #2D0C4F",
" .	c #2D0F3C",
"..	c #C6C6FF",
"+.	c #2F0F52",
"@.	c #310E55",
"#.	c #270A45",
"$.	c #C4D3FF",
"%.	c #2C0C4C",
"&.	c #3A1165",
"*.	c #290E44",
"=.	c #C5D3FF",
"-.	c #270B44",
";.	c #2F0E52",
">.	c #300D50",
",.	c #280C44",
"'.	c #270B40",
").	c #290D45",
"!.	c #2E0B4E",
"~.	c #2F0E51",
"{.	c #36105C",
"].	c #280D43",
"^.	c #C4D8FF",
"/.	c #320E54",
"(.	c #2B0B4A",
"_.	c #260E48",
":.	c #270C42",
"<.	c #240C49",
"[.	c #2F0D52",
"}.	c #270C45",
"|.	c #2F0E50",
"1.	c #290A46",
"2.	c #260B45",
"3.	c #241249",
"4.	c #2D0E4E",
"5.	c #381060",
"6.	c #2B0D48",
"7.	c #CCCCFF",
"8.	c #2A0B49",
"9.	c #200040",
"0.	c #2A0A46",
"a.	c #310F54",
"b.	c #C1D1FF",
"c.	c #2A0D49",
"d.	c #260F44",
"e.	c #350F5A",
"f.	c #290B49",
"g.	c #2C0E4B",
"h.	c #36105F",
"i.	c #361D56",
"j.	c #290B43",
"k.	c #360F5C",
"l.	c #270F45",
"m.	c #2F0D50",
"n.	c #310D54",
"o.	c #2A0B4B",
"p.	c #4F3977",
"q.	c #310D55",
"r.	c #320E57",
"s.	c #2C0D4B",
"t.	c #280B45",
"u.	c #2E0E4F",
"v.	c #594882",
"w.	c #2B0D49",
"x.	c #381062",
"y.	c #391063",
"z.	c #5F5286",
"A.	c #C1D2FF",
"B.	c #391361",
"C.	c #422469",
"D.	c #240C3D",
"E.	c #35105E",
"F.	c #330F59",
"G.	c #210842",
"H.	c #BFD2FF",
"I.	c #665893",
"J.	c #55437C",
"K.	c #A6B0DE",
"L.	c #35115C",
"M.	c #4E4275",
"N.	c #360E5C",
"O.	c #605587",
"P.	c #C2CEFF",
"Q.	c #2E0C4B",
"R.	c #2B0D4B",
"S.	c #2E175D",
"T.	c #280B47",
"U.	c #280D4C",
"V.	c #8384B4",
"W.	c #8482B5",
"X.	c #959AC9",
"Y.	c #7671A3",
"Z.	c #200A3A",
"`.	c #290C48",
" +	c #2D0D4F",
".+	c #2F094C",
"++	c #BFD6FF",
"@+	c #514476",
"#+	c #3D1D63",
"$+	c #2D0C4C",
"%+	c #54477D",
"&+	c #3B1863",
"*+	c #2E0D48",
"=+	c #63558D",
"-+	c #3C1564",
";+	c #61548C",
">+	c #3B1664",
",+	c #360F5D",
"'+	c #320F57",
")+	c #2C0B48",
"!+	c #5C4E84",
"~+	c #4B3271",
"{+	c #3D1F63",
"]+	c #331059",
"^+	c #320E58",
"/+	c #2F0F51",
"(+	c #30104A",
"_+	c #BFD9FF",
":+	c #C5D6FF",
"                                        . + @ # # $ % & *                                       ",
"                                = - ; > , ' ) $ $ $ $ $ $ $ ! ~ {                               ",
"                              ] ^ / / / ( _ $ $ $ $ $ $ $ $ $ $ $ $ :                           ",
"                            < [ / / / / } | 1 2 2 2 3 4 $ $ $ $ $ $ ! $ 5                       ",
"                            6 / / / / 7 8                   9 0 ! $ $ $ $ a                     ",
"                          b c / / / / d                           ~ $ $ $ $ 4                   ",
"                          e / / / / c f                               ! ! $ $ 4 g               ",
"                        h 7 / / / / i                                   | ! $ $ $               ",
"                        j / / / / / k                                     { % $ ~               ",
"                        l / / / / / m                                         $ n               ",
"                      o p / / / / q r                                                           ",
"                      s / / / / / t u                                                           ",
"                      v / / / / / w x                                                           ",
"                      y / / / / / z d A B C D w E F k G H I                                     ",
"                      J / / / / / / / / / / / / / / / / K L M N O                               ",
"                      P / / / / / / / / / / / / / / / / / / / / Q F R S                         ",
"                      P / / / / / / / / / / / / / / / / / / / / / / / M T                       ",
"      U               V / / / / / / / / / / / / / / / / / / / / / / / / ( W X                   ",
"  Y $ %               Z / / / / / / / / / / / / / / / / / / / / / / / / / / q `  .              ",
"..$ $ ~               +./ / / / / / / / / / / / / / / / / / / / / / / / / / / / @.#.            ",
"$.$ $ a               %./ / / / / / / / / / / c c &./ / / / / / / / / / / / / / / w *.          ",
"! $ $ =.              -./ / / / / / / ;.>.,.'.'.'.'.).!.~.t / / / / / / / / / / / / {.].        ",
"$ $ $ ^.              o p / / / / / / /.                (.K / / / / / / / / / / / / / L _.      ",
"% $ !                   d / / / / / / 7 :.              /./ / / / / / / / / / / / / / / M <.    ",
"# $ $                   ;./ / / / / / / [.            }.c / / / / / / / D i / / / / / / / |.    ",
"$ $ $                   1.( / / / / / / , 2.          V / / / / / / / K (.3.4.7 / / / / / 5.6.  ",
"0 $ $ 7.                3.E / / / / / / / J         8.q / / / / / / / C 9.    0.t / / / / / a.  ",
"$ $ $ b.                  j / / / / / / / ( c.    d.e./ / / / / / / ( f.        g.h./ / / / 7 i.",
"n $ $ Y                   j.7 / / / / / / / k.l.  m./ / / / / / / / n.            o.Q / / / / p.",
"7.$ $ $                     q./ / / / / / / / r.s.&./ / / / / / / Q t.              u.K / / / v.",
"  ! $ $                     w.x./ / / / / / / / y./ / / / / / / K g.                  F / / 5.z.",
"  ~ $ $ A.                    J / / / / / / / / / / / / / / / / /.x                   #.B./ C.  ",
"  2 $ $ !                     D.E./ / / / / / / / / / / / / / F.G.                    H.I./ J.  ",
"    $ $ $ 7.                    s.&./ / / / / / / / / / / / F.j.                      ~ K.L.M.  ",
"    4 $ $ a                       J / / / / / / / / / / / N.,.                      1 $ $ O.    ",
"      $ $ $ P.                  Q.X ( / / / / / / / / / L R.                        $ $ $ ~     ",
"      Y $ $ 0             S.T.J z / / / / / / / / / / r.U.                        | $ $ $       ",
"        V.W.X.Y.'.Z.`. +@.F.( / / / / / / / / / / ( ;..+                        ++$ $ $ ^.      ",
"        @+#+/ ( c / / / / / / / / / / / / / / / L $+                          2 ! $ $ 4         ",
"          %+&+/ / / / / / / / / / / / / / / x.e *+                          P.$ $ $ #           ",
"            =+-+/ / / / / / / / / / / / p q.g.                            3 $ $ $ $             ",
"              ;+>+/ / / / / / / / ,+'+u.)+                              $ ! $ $ $ {             ",
"                !+~+{+W W ]+^+/+f.(+                                _+$ $ $ $ 0                 ",
"                                                                1 $ $ $ $ ! !                   ",
"                                                          :+0 $ $ $ $ $ % |                     ",
"                                                        * $ $ $ $ $ $ |                         ",
"                                                          A.Y $ ! |                             ",
"                                                                                                "};
